<?xml version="1.0" encoding="utf-8"?>
<!-- Generator: Adobe Illustrator 19.2.1, SVG Export Plug-In . SVG Version: 6.00 Build 0)  -->
<svg>
<svg version="1.1" id="calendar" xmlns="http://www.w3.org/2000/svg" xmlns:xlink="http://www.w3.org/1999/xlink" x="0px" y="0px"
	 viewBox="0 0 16 16" style="enable-background:new 0 0 16 16;" xml:space="preserve">
<path d="M12,2V0h-2v2H6V0H4v2H0v14h16V2H12z M14,14H2V4h2v2h2V4h4v2h2V4h2V14z"/>
</svg>
<svg version="1.1" id="comments" xmlns="http://www.w3.org/2000/svg" xmlns:xlink="http://www.w3.org/1999/xlink" x="0px" y="0px"
	 viewBox="0 0 16 16" style="enable-background:new 0 0 16 16;" xml:space="preserve">
<g>
	<path d="M5,9h7V7H4v2H5z M12,4H4v2h8V4z M16,0H0v13h8.5l4.5,3v-3h3V0z M14,11h-3v1.5L8.5,11H2V2h12V11z"/>
</g>
</svg>
<svg id="stopwatch" xmlns="http://www.w3.org/2000/svg"  viewBox="15 309.7 16 16">
<g>
<path d="M23.9 315.1v3.6c0 .5-.4.9-.9.9s-.9-.4-.9-.9v-3.6h1.8z"/>
<path d="M30.1 317.7c.5 3.9-2.3 7.5-6.2 7.9-3.9.5-7.5-2.3-7.9-6.2-.5-3.9 2.3-7.5 6.2-7.9v-1.8H24v1.8c1.1.1 2.7.7 3.5 1.4l1.3-1.3 1.3 1.3-1.3 1.3c.5.9 1.2 2.5 1.3 3.5zm-1.8.9c0-2.9-2.4-5.3-5.3-5.3s-5.3 2.4-5.3 5.3 2.4 5.3 5.3 5.3 5.3-2.3 5.3-5.3z"/>
</g>
</svg>
</svg>